<?xml version="1.0" encoding="UTF-8" standalone="no"?>
<!-- Created with Inkscape (http://www.inkscape.org/) -->

<svg
   version="1.1"
   id="svg1"
   width="682.66669"
   height="682.66669"
   viewBox="0 0 682.66669 682.66669"
   xmlns="http://www.w3.org/2000/svg"
   xmlns:svg="http://www.w3.org/2000/svg">
  <defs
     id="defs1" />
  <g
     id="g1">
    <path
       style="fill:#ffc107;stroke:none"
       d="M 334.66668,15.290121 C 310.33131,19.879477 304.11406,45.65914 295.62552,65.333335 280.116,101.28024 264.2823,137.14421 249.34775,173.33334 c -4.93236,11.95203 -10.24815,36.21985 -20.53498,44.34363 -8.88379,7.01579 -32.38011,4.05648 -43.47943,5.37036 -40.74518,4.8232 -81.82485,7.44067 -122.666671,11.39298 -21.257524,2.05713 -46.625467,-0.34818 -58.2304551,21.5597 -14.5514839,27.47029 10.0955481,47.01941 28.8971201,63.23149 30.887091,26.63305 61.501467,53.62711 92.000006,80.70162 9.36281,8.31168 29.93702,20.11731 34.22942,32.06791 3.95793,11.01941 -6.44656,35.32373 -9.05453,46.66565 -9.29143,40.40812 -18.81325,80.804 -27.56172,121.33334 -3.55428,16.46602 -10.82526,36.37475 -0.86728,51.99487 9.63691,15.11646 29.56728,20.72164 45.92078,13.46603 45.70377,-20.27751 89.10713,-52.52617 132,-78.26132 9.49129,-5.69466 31.49821,-24.8765 42.66667,-23.07613 13.14461,2.1189 29.90429,16.75281 41.33333,23.61011 l 96,57.59977 c 17.64185,10.58602 36.73434,26.98869 58.66667,22.27983 32.08252,-6.88806 27.15308,-39.82601 21.89917,-63.61316 -9.04231,-40.93942 -18.75626,-81.72844 -27.79834,-122.66667 -2.91072,-13.17831 -12.58288,-34.71265 -10.01131,-48 2.29761,-11.87183 25.80859,-25.61605 34.57715,-33.40023 30.93282,-27.46005 62.00818,-54.82048 93.33334,-81.83126 14.38387,-12.40279 32.36124,-25.04708 31.92798,-46.10185 -0.67074,-32.59676 -33.54965,-35.98596 -58.59465,-37.38066 -38.2878,-2.13212 -76.42127,-7.69751 -114.66667,-10.50102 -14.27051,-1.04606 -42.0966,1.56104 -54.38273,-5.69034 -9.4524,-5.5789 -14.09717,-27.35755 -18.18311,-37.09465 C 423.11089,148.78842 409.02312,116.40654 395.04115,84.000003 383.67494,57.656048 372.93771,8.0726321 334.66668,15.290121 Z"
       id="path1" />
  </g>
</svg>
