<?xml version="1.0" encoding="UTF-8" standalone="no"?>
<!-- Created with Inkscape (http://www.inkscape.org/) -->

<svg
   version="1.1"
   id="svg1"
   width="512"
   height="512"
   viewBox="0 0 512 512"
   xml:space="preserve"
   xmlns="http://www.w3.org/2000/svg"
   xmlns:svg="http://www.w3.org/2000/svg"><defs
     id="defs1" /><path
     style="fill:#020202;stroke:none"
     d="m 43.685117,64.429016 c -8.266491,1.026917 -15.971203,2.996399 -23,7.675934 -41.977566,27.94727 -14.8001634,90.8573 33,85.72144 58.348663,-6.26926 47.951023,-100.59644 -10,-93.397374 m 129.000003,-0.0046 c -12.14585,1.614258 -23.19831,5.374421 -31.82639,14.614991 -23.03228,24.667263 -12.1215,65.217533 18.82639,76.731443 9.708,3.61179 20.80703,2.22919 31,2.22919 h 55 162 c 22.86947,0 53.46997,5.29031 75,-3.06866 41.66943,-16.17804 35.91937,-81.02976 -8,-89.470709 C 459.12097,62.46933 442.47079,64 426.68512,64 h -83 -113 c -18.93314,0 -39.2331,-2.069855 -58,0.424377 M 39.685117,209.43906 c -6.816765,1.07299 -13.209528,3.51117 -19,7.26001 -41.20702,26.67807 -15.3391191,93.47079 33,85.8619 6.696949,-1.05416 13.296585,-3.41656 19,-7.10882 41.382463,-26.79004 15.534172,-93.65259 -33,-86.01309 m 129.000003,0 c -46.66468,7.34524 -54.81964,73.53524 -10,90.49536 21.98507,8.3193 52.7368,3.06558 76,3.06558 h 162 52 c 11.49087,0 23.11877,0.97659 34,-3.4537 42.43481,-17.27735 35.39306,-80.91538 -9,-89.73844 -13.94373,-2.7713 -29.80933,-0.80786 -44,-0.80786 h -85 -117 c -19.0734,0 -40.16024,-2.5264 -59,0.43906 M 37.685117,354.46451 c -47.2134744,8.49734 -50.459908,78.79068 -4,91.37655 7.699318,2.0857 15.20467,2.19651 23,0.69831 59.529483,-11.44123 40.165649,-102.72333 -19,-92.07486 m 128.000003,0 c -46.74547,8.4281 -48.51258,74.94858 -6,90.48071 22.20991,8.11447 52.62317,3.05478 76,3.05478 h 158 53 c 11.60968,0 23.96106,0.85474 35,-3.46375 42.25433,-16.53002 37.66211,-80.39611 -7,-89.86727 C 461.2489,351.81964 445.4006,354 431.68512,354 h -84 -122 c -19.1987,0 -41.10964,-2.94141 -60,0.46451 z"
     id="path1" /></svg>
