<?xml version="1.0" encoding="UTF-8" standalone="no"?>
<!-- Created with Inkscape (http://www.inkscape.org/) -->

<svg
   version="1.1"
   id="svg1"
   width="682.66669"
   height="682.66669"
   viewBox="0 0 682.66669 682.66669"
   xmlns="http://www.w3.org/2000/svg"
   xmlns:svg="http://www.w3.org/2000/svg">
  <defs
     id="defs1" />
  <g
     id="g1">
    <path
       style="fill:#030303;stroke:none"
       d="m 334.66668,15.290121 c -24.33537,4.589356 -30.55262,30.369019 -39.04116,50.043214 -15.51585,35.961585 -30.96409,71.957925 -46.29218,108.000005 -5.10004,11.9921 -10.15226,36.15548 -20.52057,44.34363 -8.88379,7.01579 -32.38011,4.05648 -43.47943,5.37036 -40.74518,4.8232 -81.82485,7.44067 -122.666671,11.39298 -21.257524,2.05713 -46.625467,-0.34818 -58.2304551,21.5597 -14.5457129,27.45939 10.1107221,47.00956 28.8971201,63.23149 30.869355,26.65547 61.500775,53.6265 92.000006,80.70162 9.36281,8.31168 29.93702,20.11731 34.22942,32.06791 4.0013,11.14014 -6.42969,35.25029 -9.05453,46.66565 -9.29143,40.40812 -18.81325,80.804 -27.56172,121.33334 -3.54228,16.4104 -10.70292,36.38493 -0.86317,51.99487 20.40148,32.36524 54.70406,8.86552 77.91667,-5.06172 34.62945,-20.77723 69.37186,-41.35633 104,-62.13274 8.76599,-5.25948 28.28345,-22.35075 38.66667,-20.67696 13.14461,2.1189 29.90429,16.75281 41.33333,23.61011 31.9714,19.18241 63.84327,38.54692 96,57.41459 18.57068,10.89616 37.01482,27.25623 60.00001,21.94446 32.05224,-7.40714 25.34065,-41.01546 20.27982,-64.42595 -8.76253,-40.53369 -18.56856,-80.84025 -27.51233,-121.33333 -2.8942,-13.1036 -12.56046,-34.82845 -10.01131,-48 2.29761,-11.87183 25.80859,-25.61605 34.57715,-33.40023 30.93392,-27.46102 62.00639,-54.81893 93.33334,-81.83126 14.38387,-12.40279 32.36124,-25.04708 31.92798,-46.10185 -0.67074,-32.59676 -33.54965,-35.98596 -58.59465,-37.38066 -38.2878,-2.13212 -76.42127,-7.69751 -114.66667,-10.50102 -14.27051,-1.04606 -42.0966,1.56104 -54.38273,-5.69034 -9.10503,-5.37387 -13.81486,-26.3667 -17.81686,-35.76132 C 423.12102,149.7721 409.2066,116.83183 395.04115,84.000003 383.67494,57.656048 372.93771,8.0726321 334.66668,15.290121 m 6.66666,52.709881 c 10.36565,15.427369 16.45752,36.117998 23.4712,53.333338 10.75545,26.39974 22.41801,52.47046 33.66154,78.66667 7.08366,16.50415 12.50801,38.8516 25.91976,51.37654 14.40246,13.45016 38.66544,11.08065 56.94751,12.84982 49.16284,4.75757 99.94299,13.1016 149.33334,13.10697 -8.86585,12.48189 -23.20423,22.11674 -34.66667,32.20679 -23.96961,21.09977 -47.81735,42.37647 -72,63.2284 -14.06218,12.12536 -35.86028,25.51159 -42.98145,43.23148 -7.32133,18.21794 3.09517,41.85539 6.98144,60 10.12077,47.25306 25.5516,94.78028 32.00001,142.66668 -15.42725,-5.64816 -29.92074,-16.88506 -44.00001,-25.33334 -27.07218,-16.24471 -54.25932,-32.28886 -81.33333,-48.53292 -15.41964,-9.25159 -34.60323,-26.09464 -53.33334,-26.09464 -18.73008,0 -37.91375,16.84309 -53.33333,26.09464 -28.85124,17.31035 -57.56755,34.87704 -86.66667,51.76542 -12.56336,7.29147 -25.00948,17.10075 -38.66667,22.10084 6.09398,-47.18954 20.88617,-94.9312 31.53498,-141.33334 4.19588,-18.28353 14.83329,-42.95264 7.44651,-61.33334 -6.68777,-16.64127 -25.97864,-28.39005 -38.98149,-39.9331 C 137.46589,353.69532 111.867,331.77129 86.666669,309.40024 75.259702,299.27393 60.855354,289.80042 52.000002,277.33334 c 49.375238,-0.005 100.185228,-8.35083 149.333338,-13.10697 18.85978,-1.82508 42.72703,0.54793 57.31277,-13.61731 13.04555,-12.66948 18.49802,-34.16822 25.55452,-50.60905 12.76837,-29.74887 25.26701,-59.60946 38.09155,-89.33334 5.97317,-13.844198 10.63245,-30.151653 19.04116,-42.666668 z"
       id="path1" />
  </g>
</svg>
